<svg xmlns="http://www.w3.org/2000/svg" xmlns:xlink="http://www.w3.org/1999/xlink" width="500" zoomAndPan="magnify" viewBox="0 0 375 374.999991" height="500" preserveAspectRatio="xMidYMid meet" version="1.0"><defs><g/><clipPath id="e6a221d0c3"><path d="M 174 85.941406 L 224 85.941406 L 224 151 L 174 151 Z M 174 85.941406 " clip-rule="nonzero"/></clipPath><clipPath id="b4592f464b"><path d="M 185.886719 147.945312 L 250.125 147.945312 L 250.125 196.675781 L 185.886719 196.675781 Z M 185.886719 147.945312 " clip-rule="nonzero"/></clipPath><clipPath id="f56e4afe08"><path d="M 139.425781 158.953125 L 188.152344 158.953125 L 188.152344 223.191406 L 139.425781 223.191406 Z M 139.425781 158.953125 " clip-rule="nonzero"/></clipPath><clipPath id="0e0713e905"><path d="M 112.875 112 L 178 112 L 178 162 L 112.875 162 Z M 112.875 112 " clip-rule="nonzero"/></clipPath></defs><g fill="#333333" fill-opacity="1"><g transform="translate(117.404835, 257.717589)"><g><path d="M 14 -20.5625 L 22.59375 0 L 17.828125 0 L 15.984375 -4.40625 L 7.25 -4.40625 L 5.421875 0 L 0.640625 0 L 9.21875 -20.5625 Z M 14.328125 -8.40625 L 11.625 -14.875 L 8.9375 -8.40625 Z M 14.328125 -8.40625 "/></g></g></g><g fill="#333333" fill-opacity="1"><g transform="translate(141.990545, 257.717589)"><g><path d="M 8.78125 -14.390625 C 9.320312 -14.390625 9.921875 -14.3125 10.578125 -14.15625 C 11.242188 -14 11.863281 -13.707031 12.4375 -13.28125 C 13.019531 -12.851562 13.507812 -12.257812 13.90625 -11.5 C 14.300781 -10.75 14.5 -9.773438 14.5 -8.578125 L 14.5 0 L 10.46875 0 L 10.46875 -8.4375 C 10.46875 -8.882812 10.394531 -9.257812 10.25 -9.5625 C 10.101562 -9.875 9.910156 -10.117188 9.671875 -10.296875 C 9.429688 -10.484375 9.15625 -10.617188 8.84375 -10.703125 C 8.53125 -10.796875 8.222656 -10.84375 7.921875 -10.84375 C 7.671875 -10.84375 7.394531 -10.796875 7.09375 -10.703125 C 6.789062 -10.617188 6.507812 -10.476562 6.25 -10.28125 C 5.988281 -10.09375 5.769531 -9.84375 5.59375 -9.53125 C 5.425781 -9.226562 5.34375 -8.863281 5.34375 -8.4375 L 5.34375 0 L 1.328125 0 L 1.328125 -14.390625 L 4.75 -14.390625 L 5.34375 -13.28125 C 5.800781 -13.613281 6.316406 -13.878906 6.890625 -14.078125 C 7.472656 -14.285156 8.101562 -14.390625 8.78125 -14.390625 Z M 8.78125 -14.390625 "/></g></g></g><g fill="#333333" fill-opacity="1"><g transform="translate(159.038295, 257.717589)"><g><path d="M 12.40625 -14.390625 L 16.796875 -14.390625 L 7.71875 5.734375 L 3.328125 5.734375 L 6.90625 -2.171875 L 0.8125 -14.390625 L 5.28125 -14.390625 L 9.015625 -6.875 Z M 12.40625 -14.390625 "/></g></g></g><g fill="#333333" fill-opacity="1"><g transform="translate(177.53566, 257.717589)"><g><path d="M 26.765625 -20.5625 L 31.34375 -20.5625 L 25.546875 0 L 20.09375 0 L 15.859375 -13.828125 L 11.625 0 L 6.234375 0 L 0.4375 -20.5625 L 5.015625 -20.5625 L 9.078125 -5.015625 L 13.75 -20.5625 L 17.984375 -20.5625 L 22.671875 -4.90625 Z M 26.765625 -20.5625 "/></g></g></g><g fill="#333333" fill-opacity="1"><g transform="translate(210.73205, 257.717589)"><g><path d="M 8.375 -14.796875 C 9.40625 -14.796875 10.375 -14.59375 11.28125 -14.1875 C 12.1875 -13.789062 12.976562 -13.25 13.65625 -12.5625 C 14.332031 -11.882812 14.867188 -11.082031 15.265625 -10.15625 C 15.660156 -9.238281 15.859375 -8.257812 15.859375 -7.21875 C 15.859375 -6.175781 15.660156 -5.195312 15.265625 -4.28125 C 14.867188 -3.363281 14.332031 -2.5625 13.65625 -1.875 C 12.976562 -1.1875 12.1875 -0.644531 11.28125 -0.25 C 10.375 0.144531 9.40625 0.34375 8.375 0.34375 C 7.332031 0.34375 6.359375 0.144531 5.453125 -0.25 C 4.546875 -0.644531 3.753906 -1.1875 3.078125 -1.875 C 2.398438 -2.5625 1.863281 -3.363281 1.46875 -4.28125 C 1.070312 -5.195312 0.875 -6.175781 0.875 -7.21875 C 0.875 -8.257812 1.070312 -9.238281 1.46875 -10.15625 C 1.863281 -11.082031 2.398438 -11.882812 3.078125 -12.5625 C 3.753906 -13.25 4.546875 -13.789062 5.453125 -14.1875 C 6.359375 -14.59375 7.332031 -14.796875 8.375 -14.796875 Z M 8.375 -3.15625 C 8.863281 -3.15625 9.316406 -3.25 9.734375 -3.4375 C 10.148438 -3.632812 10.515625 -3.898438 10.828125 -4.234375 C 11.148438 -4.578125 11.398438 -4.984375 11.578125 -5.453125 C 11.765625 -5.929688 11.859375 -6.460938 11.859375 -7.046875 C 11.859375 -7.628906 11.765625 -8.171875 11.578125 -8.671875 C 11.398438 -9.171875 11.148438 -9.609375 10.828125 -9.984375 C 10.515625 -10.367188 10.148438 -10.671875 9.734375 -10.890625 C 9.316406 -11.109375 8.863281 -11.21875 8.375 -11.21875 C 7.894531 -11.21875 7.441406 -11.109375 7.015625 -10.890625 C 6.585938 -10.671875 6.210938 -10.367188 5.890625 -9.984375 C 5.578125 -9.609375 5.328125 -9.171875 5.140625 -8.671875 C 4.960938 -8.171875 4.875 -7.628906 4.875 -7.046875 C 4.875 -6.460938 4.960938 -5.929688 5.140625 -5.453125 C 5.328125 -4.984375 5.578125 -4.578125 5.890625 -4.234375 C 6.210938 -3.898438 6.585938 -3.632812 7.015625 -3.4375 C 7.441406 -3.25 7.894531 -3.15625 8.375 -3.15625 Z M 8.375 -3.15625 "/></g></g></g><g fill="#333333" fill-opacity="1"><g transform="translate(228.736534, 257.717589)"><g><path d="M 5.25 -12.390625 C 5.4375 -12.691406 5.65625 -12.984375 5.90625 -13.265625 C 6.164062 -13.546875 6.46875 -13.796875 6.8125 -14.015625 C 7.164062 -14.242188 7.5625 -14.425781 8 -14.5625 C 8.445312 -14.695312 8.953125 -14.765625 9.515625 -14.765625 C 10.171875 -14.765625 10.929688 -14.644531 11.796875 -14.40625 L 11.421875 -10.84375 C 11.210938 -10.882812 11 -10.929688 10.78125 -10.984375 C 10.613281 -11.023438 10.421875 -11.0625 10.203125 -11.09375 C 9.992188 -11.125 9.800781 -11.140625 9.625 -11.140625 C 9.007812 -11.140625 8.4375 -11.050781 7.90625 -10.875 C 7.375 -10.695312 6.910156 -10.453125 6.515625 -10.140625 C 6.128906 -9.835938 5.820312 -9.46875 5.59375 -9.03125 C 5.363281 -8.59375 5.25 -8.125 5.25 -7.625 L 5.25 0 L 1.25 0 L 1.25 -14.390625 L 4.875 -14.390625 Z M 5.25 -12.390625 "/></g></g></g><g fill="#333333" fill-opacity="1"><g transform="translate(242.044296, 257.717589)"><g><path d="M 9.28125 -8.40625 L 15.34375 0 L 10.5625 0 L 6.75 -5.734375 L 5.34375 -4.203125 L 5.34375 0 L 1.328125 0 L 1.328125 -21.171875 L 5.34375 -21.171875 L 5.34375 -9.421875 L 10 -14.390625 L 14.875 -14.390625 Z M 9.28125 -8.40625 "/></g></g></g><path fill="#00adef" d="M 208.484375 120.886719 C 212.050781 121.742188 215.636719 119.539062 216.492188 115.972656 C 217.34375 112.40625 215.144531 108.820312 211.578125 107.96875 C 208.007812 107.113281 204.425781 109.3125 203.570312 112.878906 C 202.714844 116.449219 204.914062 120.03125 208.484375 120.886719 " fill-opacity="1" fill-rule="nonzero"/><g clip-path="url(#e6a221d0c3)"><path fill="#00adef" d="M 223.464844 121.742188 C 212.625 124.527344 204.398438 125.082031 201.558594 119.90625 C 199.921875 120.023438 197.75 120.367188 195.683594 121.273438 L 200.507812 115.78125 C 200.378906 113.417969 200.792969 110.464844 201.847656 106.808594 C 207.105469 88.546875 195.488281 85.941406 195.488281 85.941406 C 202.738281 95.664062 192.820312 108.195312 192.820312 108.195312 C 170.078125 132.027344 175.492188 150.175781 175.492188 150.175781 C 175.492188 150.175781 178.84375 129.511719 197.300781 129.492188 C 215.757812 129.476562 223.464844 121.742188 223.464844 121.742188 " fill-opacity="1" fill-rule="nonzero"/></g><path fill="#f68712" d="M 224.402344 149.832031 C 226.320312 152.957031 230.410156 153.9375 233.535156 152.015625 C 236.664062 150.097656 237.640625 146.007812 235.722656 142.882812 C 233.804688 139.753906 229.714844 138.777344 226.589844 140.695312 C 223.460938 142.613281 222.480469 146.703125 224.402344 149.832031 " fill-opacity="1" fill-rule="nonzero"/><path fill="#f68712" d="M 234.390625 161.027344 C 224.753906 155.332031 218.546875 149.90625 220.195312 144.242188 C 218.957031 143.164062 217.179688 141.871094 215.074219 141.054688 L 222.371094 140.582031 C 223.949219 138.816406 226.332031 137.023438 229.664062 135.179688 C 246.292969 125.988281 239.917969 115.929688 239.917969 115.929688 C 238.175781 127.933594 222.300781 129.777344 222.300781 129.777344 C 189.367188 130.550781 180.359375 147.214844 180.359375 147.214844 C 180.359375 147.214844 197.34375 134.96875 210.40625 148.007812 C 223.46875 161.050781 234.390625 161.027344 234.390625 161.027344 " fill-opacity="1" fill-rule="nonzero"/><path fill="#ec008c" d="M 215.191406 181.550781 C 214.335938 185.117188 216.535156 188.703125 220.101562 189.558594 C 223.667969 190.410156 227.253906 188.210938 228.109375 184.644531 C 228.964844 181.078125 226.761719 177.492188 223.195312 176.640625 C 219.628906 175.785156 216.042969 177.984375 215.191406 181.550781 " fill-opacity="1" fill-rule="nonzero"/><g clip-path="url(#b4592f464b)"><path fill="#ec008c" d="M 214.335938 196.535156 C 211.550781 185.691406 210.996094 177.46875 216.167969 174.625 C 216.050781 172.988281 215.710938 170.820312 214.800781 168.75 L 220.292969 173.574219 C 222.65625 173.445312 225.609375 173.859375 229.269531 174.914062 C 247.527344 180.171875 250.132812 168.554688 250.132812 168.554688 C 240.410156 175.808594 227.882812 165.886719 227.882812 165.886719 C 204.050781 143.148438 185.898438 148.558594 185.898438 148.558594 C 185.898438 148.558594 206.566406 151.910156 206.582031 170.371094 C 206.597656 188.824219 214.335938 196.535156 214.335938 196.535156 " fill-opacity="1" fill-rule="nonzero"/></g><path fill="#f14624" d="M 186.246094 197.46875 C 183.117188 199.386719 182.140625 203.476562 184.058594 206.605469 C 185.976562 209.730469 190.066406 210.710938 193.195312 208.792969 C 196.320312 206.871094 197.300781 202.78125 195.382812 199.65625 C 193.460938 196.527344 189.371094 195.550781 186.246094 197.46875 " fill-opacity="1" fill-rule="nonzero"/><path fill="#f14624" d="M 175.046875 207.457031 C 180.746094 197.824219 186.167969 191.617188 191.835938 193.261719 C 192.910156 192.023438 194.203125 190.246094 195.023438 188.140625 L 195.496094 195.4375 C 197.257812 197.019531 199.050781 199.398438 200.894531 202.730469 C 210.085938 219.359375 220.144531 212.988281 220.144531 212.988281 C 208.140625 211.242188 206.296875 195.367188 206.296875 195.367188 C 205.523438 162.4375 188.863281 153.429688 188.863281 153.429688 C 188.863281 153.429688 201.105469 170.410156 188.066406 183.476562 C 175.027344 196.539062 175.046875 207.457031 175.046875 207.457031 " fill-opacity="1" fill-rule="nonzero"/><path fill="#e81067" d="M 154.523438 188.257812 C 150.957031 187.402344 147.371094 189.601562 146.519531 193.171875 C 145.664062 196.738281 147.863281 200.320312 151.429688 201.175781 C 155 202.03125 158.582031 199.832031 159.4375 196.265625 C 160.292969 192.695312 158.09375 189.109375 154.523438 188.257812 " fill-opacity="1" fill-rule="nonzero"/><g clip-path="url(#f56e4afe08)"><path fill="#e81067" d="M 139.542969 187.402344 C 150.382812 184.617188 158.609375 184.0625 161.453125 189.234375 C 163.085938 189.121094 165.257812 188.777344 167.324219 187.867188 L 162.5 193.363281 C 162.628906 195.726562 162.214844 198.675781 161.164062 202.335938 C 155.902344 220.59375 167.523438 223.199219 167.523438 223.199219 C 160.269531 213.480469 170.1875 200.949219 170.1875 200.949219 C 192.929688 177.117188 187.515625 158.964844 187.515625 158.964844 C 187.515625 158.964844 184.164062 179.632812 165.707031 179.648438 C 147.25 179.664062 139.542969 187.402344 139.542969 187.402344 " fill-opacity="1" fill-rule="nonzero"/></g><path fill="#ed1c24" d="M 138.605469 159.3125 C 136.6875 156.1875 132.597656 155.207031 129.472656 157.125 C 126.347656 159.042969 125.367188 163.136719 127.285156 166.261719 C 129.203125 169.386719 133.292969 170.367188 136.421875 168.449219 C 139.546875 166.53125 140.527344 162.441406 138.605469 159.3125 " fill-opacity="1" fill-rule="nonzero"/><path fill="#ed1c24" d="M 128.617188 148.113281 C 138.253906 153.8125 144.460938 159.234375 142.8125 164.902344 C 144.054688 165.976562 145.828125 167.269531 147.933594 168.089844 L 140.636719 168.5625 C 139.058594 170.324219 136.679688 172.121094 133.34375 173.960938 C 116.714844 183.15625 123.089844 193.210938 123.089844 193.210938 C 124.835938 181.210938 140.707031 179.363281 140.707031 179.363281 C 173.640625 178.59375 182.648438 161.929688 182.648438 161.929688 C 182.648438 161.929688 165.664062 174.171875 152.601562 161.132812 C 139.539062 148.09375 128.617188 148.113281 128.617188 148.113281 " fill-opacity="1" fill-rule="nonzero"/><path fill="#80cc28" d="M 147.820312 127.59375 C 148.671875 124.023438 146.472656 120.441406 142.90625 119.585938 C 139.339844 118.730469 135.753906 120.929688 134.898438 124.5 C 134.046875 128.066406 136.246094 131.652344 139.8125 132.503906 C 143.378906 133.359375 146.964844 131.160156 147.820312 127.59375 " fill-opacity="1" fill-rule="nonzero"/><g clip-path="url(#0e0713e905)"><path fill="#80cc28" d="M 148.675781 112.609375 C 151.457031 123.453125 152.011719 131.675781 146.839844 134.519531 C 146.957031 136.15625 147.296875 138.324219 148.207031 140.390625 L 142.714844 135.570312 C 140.351562 135.699219 137.398438 135.285156 133.738281 134.230469 C 115.480469 128.96875 112.875 140.589844 112.875 140.589844 C 122.597656 133.335938 135.125 143.257812 135.125 143.257812 C 158.957031 165.996094 177.109375 160.582031 177.109375 160.582031 C 177.109375 160.582031 156.441406 157.230469 156.425781 138.773438 C 156.410156 120.316406 148.675781 112.609375 148.675781 112.609375 " fill-opacity="1" fill-rule="nonzero"/></g><path fill="#2c3892" d="M 176.761719 111.675781 C 179.890625 109.757812 180.867188 105.667969 178.949219 102.539062 C 177.03125 99.414062 172.941406 98.433594 169.8125 100.351562 C 166.6875 102.269531 165.707031 106.363281 167.628906 109.488281 C 169.546875 112.613281 173.636719 113.59375 176.761719 111.675781 " fill-opacity="1" fill-rule="nonzero"/><path fill="#2c3892" d="M 187.960938 101.6875 C 182.261719 111.320312 176.839844 117.527344 171.171875 115.882812 C 170.097656 117.121094 168.804688 118.894531 167.984375 121 L 167.511719 113.707031 C 165.75 112.125 163.957031 109.746094 162.113281 106.414062 C 152.921875 89.78125 142.863281 96.15625 142.863281 96.15625 C 154.867188 97.902344 156.710938 113.777344 156.710938 113.777344 C 157.484375 146.707031 174.144531 155.714844 174.144531 155.714844 C 174.144531 155.714844 161.902344 138.730469 174.941406 125.667969 C 187.980469 112.605469 187.960938 101.6875 187.960938 101.6875 " fill-opacity="1" fill-rule="nonzero"/></svg>