<svg xmlns="http://www.w3.org/2000/svg" xmlns:xlink="http://www.w3.org/1999/xlink" width="500" zoomAndPan="magnify" viewBox="0 0 375 374.999991" height="500" preserveAspectRatio="xMidYMid meet" version="1.0"><defs><clipPath id="dca1f1b907"><path d="M 192.003906 151.003906 L 256.242188 151.003906 L 256.242188 199.734375 L 192.003906 199.734375 Z M 192.003906 151.003906 " clip-rule="nonzero"/></clipPath><clipPath id="53a0b9fa9b"><path d="M 145.542969 162.011719 L 194.273438 162.011719 L 194.273438 226.25 L 145.542969 226.25 Z M 145.542969 162.011719 " clip-rule="nonzero"/></clipPath><clipPath id="c56fb4bf71"><path d="M 118.992188 115 L 184 115 L 184 165 L 118.992188 165 Z M 118.992188 115 " clip-rule="nonzero"/></clipPath></defs><path fill="#00adef" d="M 214.601562 123.945312 C 218.167969 124.800781 221.753906 122.601562 222.609375 119.03125 C 223.460938 115.464844 221.261719 111.878906 217.695312 111.027344 C 214.128906 110.171875 210.542969 112.371094 209.6875 115.9375 C 208.835938 119.507812 211.035156 123.089844 214.601562 123.945312 " fill-opacity="1" fill-rule="nonzero"/><path fill="#00adef" d="M 229.582031 124.800781 C 218.742188 127.585938 210.515625 128.140625 207.675781 122.964844 C 206.039062 123.082031 203.867188 123.425781 201.800781 124.332031 L 206.625 118.839844 C 206.496094 116.476562 206.910156 113.523438 207.964844 109.867188 C 213.222656 91.605469 201.605469 89 201.605469 89 C 208.859375 98.722656 198.9375 111.253906 198.9375 111.253906 C 176.199219 135.085938 181.609375 153.234375 181.609375 153.234375 C 181.609375 153.234375 184.960938 132.570312 203.417969 132.554688 C 221.875 132.535156 229.582031 124.800781 229.582031 124.800781 " fill-opacity="1" fill-rule="nonzero"/><path fill="#f68712" d="M 230.519531 152.890625 C 232.4375 156.015625 236.527344 156.996094 239.652344 155.078125 C 242.78125 153.15625 243.757812 149.066406 241.839844 145.941406 C 239.921875 142.8125 235.832031 141.835938 232.707031 143.753906 C 229.578125 145.671875 228.601562 149.761719 230.519531 152.890625 " fill-opacity="1" fill-rule="nonzero"/><path fill="#f68712" d="M 240.507812 164.085938 C 230.871094 158.390625 224.664062 152.964844 226.3125 147.300781 C 225.074219 146.222656 223.296875 144.929688 221.191406 144.113281 L 228.488281 143.640625 C 230.066406 141.875 232.449219 140.082031 235.78125 138.238281 C 252.410156 129.046875 246.035156 118.988281 246.035156 118.988281 C 244.292969 130.992188 228.417969 132.839844 228.417969 132.839844 C 195.488281 133.609375 186.476562 150.273438 186.476562 150.273438 C 186.476562 150.273438 203.460938 138.027344 216.523438 151.066406 C 229.585938 164.109375 240.507812 164.085938 240.507812 164.085938 " fill-opacity="1" fill-rule="nonzero"/><path fill="#ec008c" d="M 221.308594 184.609375 C 220.453125 188.175781 222.652344 191.761719 226.21875 192.617188 C 229.789062 193.46875 233.371094 191.269531 234.226562 187.703125 C 235.082031 184.136719 232.878906 180.550781 229.3125 179.699219 C 225.746094 178.84375 222.160156 181.042969 221.308594 184.609375 " fill-opacity="1" fill-rule="nonzero"/><g clip-path="url(#dca1f1b907)"><path fill="#ec008c" d="M 220.453125 199.59375 C 217.667969 188.75 217.113281 180.527344 222.285156 177.683594 C 222.167969 176.046875 221.828125 173.878906 220.917969 171.808594 L 226.410156 176.632812 C 228.773438 176.503906 231.726562 176.917969 235.386719 177.972656 C 253.644531 183.230469 256.25 171.613281 256.25 171.613281 C 246.527344 178.867188 234 168.945312 234 168.945312 C 210.167969 146.207031 192.015625 151.617188 192.015625 151.617188 C 192.015625 151.617188 212.683594 154.96875 212.699219 173.429688 C 212.714844 191.882812 220.453125 199.59375 220.453125 199.59375 " fill-opacity="1" fill-rule="nonzero"/></g><path fill="#f14624" d="M 192.363281 200.527344 C 189.238281 202.445312 188.257812 206.535156 190.175781 209.664062 C 192.09375 212.789062 196.183594 213.769531 199.3125 211.851562 C 202.4375 209.929688 203.417969 205.839844 201.5 202.714844 C 199.578125 199.585938 195.488281 198.609375 192.363281 200.527344 " fill-opacity="1" fill-rule="nonzero"/><path fill="#f14624" d="M 181.164062 210.515625 C 186.863281 200.882812 192.285156 194.675781 197.953125 196.320312 C 199.027344 195.082031 200.320312 193.304688 201.140625 191.199219 L 201.613281 198.496094 C 203.375 200.078125 205.171875 202.457031 207.011719 205.789062 C 216.203125 222.417969 226.261719 216.046875 226.261719 216.046875 C 214.257812 214.300781 212.414062 198.425781 212.414062 198.425781 C 211.640625 165.496094 194.980469 156.488281 194.980469 156.488281 C 194.980469 156.488281 207.222656 173.46875 194.183594 186.535156 C 181.144531 199.597656 181.164062 210.515625 181.164062 210.515625 " fill-opacity="1" fill-rule="nonzero"/><path fill="#e81067" d="M 160.640625 191.316406 C 157.074219 190.460938 153.488281 192.660156 152.636719 196.230469 C 151.78125 199.796875 153.980469 203.378906 157.546875 204.234375 C 161.117188 205.089844 164.699219 202.890625 165.554688 199.324219 C 166.410156 195.753906 164.210938 192.167969 160.640625 191.316406 " fill-opacity="1" fill-rule="nonzero"/><g clip-path="url(#53a0b9fa9b)"><path fill="#e81067" d="M 145.660156 190.460938 C 156.5 187.675781 164.726562 187.121094 167.570312 192.292969 C 169.207031 192.179688 171.375 191.835938 173.441406 190.925781 L 168.617188 196.421875 C 168.746094 198.785156 168.332031 201.734375 167.28125 205.394531 C 162.019531 223.652344 173.640625 226.257812 173.640625 226.257812 C 166.386719 216.539062 176.304688 204.007812 176.304688 204.007812 C 199.046875 180.175781 193.632812 162.023438 193.632812 162.023438 C 193.632812 162.023438 190.28125 182.691406 171.824219 182.707031 C 153.367188 182.726562 145.660156 190.460938 145.660156 190.460938 " fill-opacity="1" fill-rule="nonzero"/></g><path fill="#ed1c24" d="M 144.722656 162.371094 C 142.804688 159.246094 138.714844 158.265625 135.589844 160.183594 C 132.464844 162.101562 131.484375 166.195312 133.402344 169.320312 C 135.320312 172.445312 139.410156 173.425781 142.539062 171.507812 C 145.664062 169.589844 146.644531 165.5 144.722656 162.371094 " fill-opacity="1" fill-rule="nonzero"/><path fill="#ed1c24" d="M 134.734375 151.171875 C 144.371094 156.871094 150.578125 162.292969 148.929688 167.960938 C 150.171875 169.035156 151.945312 170.328125 154.050781 171.148438 L 146.753906 171.621094 C 145.175781 173.382812 142.796875 175.179688 139.460938 177.019531 C 122.832031 186.214844 129.207031 196.273438 129.207031 196.273438 C 130.953125 184.269531 146.824219 182.421875 146.824219 182.421875 C 179.757812 181.652344 188.765625 164.988281 188.765625 164.988281 C 188.765625 164.988281 171.78125 177.230469 158.71875 164.191406 C 145.65625 151.152344 134.734375 151.171875 134.734375 151.171875 " fill-opacity="1" fill-rule="nonzero"/><path fill="#80cc28" d="M 153.9375 130.652344 C 154.789062 127.082031 152.589844 123.5 149.023438 122.644531 C 145.457031 121.789062 141.871094 123.988281 141.015625 127.558594 C 140.164062 131.125 142.363281 134.710938 145.929688 135.5625 C 149.496094 136.417969 153.082031 134.21875 153.9375 130.652344 " fill-opacity="1" fill-rule="nonzero"/><g clip-path="url(#c56fb4bf71)"><path fill="#80cc28" d="M 154.792969 115.667969 C 157.574219 126.511719 158.128906 134.734375 152.957031 137.578125 C 153.074219 139.214844 153.414062 141.382812 154.324219 143.453125 L 148.832031 138.628906 C 146.46875 138.757812 143.515625 138.34375 139.855469 137.289062 C 121.597656 132.027344 118.992188 143.648438 118.992188 143.648438 C 128.714844 136.394531 141.242188 146.316406 141.242188 146.316406 C 165.074219 169.054688 183.226562 163.640625 183.226562 163.640625 C 183.226562 163.640625 162.5625 160.289062 162.542969 141.832031 C 162.527344 123.375 154.792969 115.667969 154.792969 115.667969 " fill-opacity="1" fill-rule="nonzero"/></g><path fill="#2c3892" d="M 182.878906 114.734375 C 186.007812 112.816406 186.984375 108.726562 185.066406 105.597656 C 183.148438 102.472656 179.058594 101.492188 175.933594 103.410156 C 172.804688 105.328125 171.824219 109.421875 173.746094 112.546875 C 175.664062 115.671875 179.753906 116.652344 182.878906 114.734375 " fill-opacity="1" fill-rule="nonzero"/><path fill="#2c3892" d="M 194.078125 104.746094 C 188.382812 114.378906 182.957031 120.585938 177.289062 118.941406 C 176.214844 120.179688 174.921875 121.953125 174.105469 124.058594 L 173.628906 116.765625 C 171.867188 115.183594 170.074219 112.804688 168.230469 109.472656 C 159.039062 92.839844 148.980469 99.214844 148.980469 99.214844 C 160.984375 100.960938 162.828125 116.835938 162.828125 116.835938 C 163.601562 149.765625 180.265625 158.773438 180.265625 158.773438 C 180.265625 158.773438 168.019531 141.789062 181.058594 128.726562 C 194.097656 115.664062 194.078125 104.746094 194.078125 104.746094 " fill-opacity="1" fill-rule="nonzero"/></svg>